{"glyphs":{"0":{"ha":75,"x_min":0,"x_max":0,"o":""},"1":{"ha":75,"x_min":0,"x_max":0,"o":""},"2":{"ha":75,"x_min":0,"x_max":0,"o":""},"3":{"ha":75,"x_min":0,"x_max":0,"o":""},"4":{"ha":75,"x_min":0,"x_max":0,"o":""},"5":{"ha":75,"x_min":0,"x_max":0,"o":""},"6":{"ha":75,"x_min":0,"x_max":0,"o":""},"7":{"ha":75,"x_min":0,"x_max":0,"o":""},"8":{"ha":75,"x_min":0,"x_max":0,"o":""},"9":{"ha":75,"x_min":0,"x_max":0,"o":""}," ":{"ha":294,"x_min":0,"x_max":0,"o":""}," ":{"ha":294,"x_min":0,"x_max":0,"o":""},"!":{"ha":75,"x_min":0,"x_max":0,"o":""},"\"":{"ha":75,"x_min":0,"x_max":0,"o":""},"#":{"ha":75,"x_min":0,"x_max":0,"o":""},"$":{"ha":75,"x_min":0,"x_max":0,"o":""},"%":{"ha":75,"x_min":0,"x_max":0,"o":""},"&":{"ha":75,"x_min":0,"x_max":0,"o":""},"'":{"ha":75,"x_min":0,"x_max":0,"o":""},"(":{"ha":75,"x_min":0,"x_max":0,"o":""},")":{"ha":75,"x_min":0,"x_max":0,"o":""},"*":{"ha":1702,"x_min":37,"x_max":1665,"o":"m 1350 485 l 1662 0 l 1278 0 l 1158 186 l 1038 0 l 655 0 l 966 485 l 829 699 l 376 699 l 376 581 l 748 581 l 748 317 l 376 317 l 376 0 l 37 0 l 37 972 l 1036 972 l 1158 784 l 1278 972 l 1665 972 l 1350 485 z "},"+":{"ha":75,"x_min":0,"x_max":0,"o":""},",":{"ha":75,"x_min":0,"x_max":0,"o":""},"-":{"ha":75,"x_min":0,"x_max":0,"o":""},"­":{"ha":75,"x_min":0,"x_max":0,"o":""},".":{"ha":75,"x_min":0,"x_max":0,"o":""},"/":{"ha":75,"x_min":0,"x_max":0,"o":""},":":{"ha":75,"x_min":0,"x_max":0,"o":""},";":{"ha":75,"x_min":0,"x_max":0,"o":""},";":{"ha":75,"x_min":0,"x_max":0,"o":""},"<":{"ha":75,"x_min":0,"x_max":0,"o":""},"=":{"ha":75,"x_min":0,"x_max":0,"o":""},">":{"ha":75,"x_min":0,"x_max":0,"o":""},"?":{"ha":75,"x_min":0,"x_max":0,"o":""},"@":{"ha":75,"x_min":0,"x_max":0,"o":""},"A":{"ha":1114,"x_min":30,"x_max":1083,"o":"m 415 120 l 380 0 l 30 0 l 365 972 l 748 972 l 1083 0 l 737 0 l 701 120 l 415 120 m 627 371 l 555 612 l 486 371 l 627 371 z "},"B":{"ha":966,"x_min":37,"x_max":935,"o":"m 37 0 l 37 972 l 627 972 q 841 897 767 972 q 916 725 916 821 q 869 576 916 635 q 749 502 823 517 q 882 424 830 490 q 935 264 935 357 q 860 77 935 155 q 648 0 786 0 l 37 0 m 351 597 l 538 597 q 579 616 562 597 q 597 660 597 634 q 579 702 597 685 q 538 720 562 720 l 351 720 l 351 597 m 351 253 l 547 253 q 597 272 578 253 q 616 318 616 290 q 597 366 616 346 q 547 385 578 385 l 351 385 l 351 253 z "},"C":{"ha":1072,"x_min":33,"x_max":1042,"o":"m 746 357 l 1038 232 q 947 119 1002 170 q 566 -22 795 -22 q 185 119 338 -22 q 33 483 33 260 q 185 846 33 705 q 566 987 338 987 q 947 846 795 987 q 1042 727 1006 793 l 750 597 q 580 713 693 713 q 429 647 487 713 q 372 483 372 581 q 429 319 372 385 q 580 252 487 252 q 746 357 693 252 z "},"D":{"ha":1025,"x_min":37,"x_max":991,"o":"m 376 274 l 452 274 q 602 336 545 274 q 659 487 659 398 q 606 641 659 583 q 453 699 553 699 l 376 699 l 376 274 m 37 0 l 37 972 l 464 972 q 845 843 700 972 q 991 487 991 714 q 845 130 991 260 q 465 0 700 0 l 37 0 z "},"E":{"ha":865,"x_min":37,"x_max":829,"o":"m 376 618 l 748 618 l 748 354 l 376 354 l 376 274 l 829 274 l 829 0 l 37 0 l 37 972 l 829 972 l 829 699 l 376 699 l 376 618 z "},"F":{"ha":865,"x_min":37,"x_max":829,"o":"m 829 699 l 376 699 l 376 581 l 748 581 l 748 317 l 376 317 l 376 0 l 37 0 l 37 972 l 829 972 l 829 699 z "},"G":{"ha":1051,"x_min":33,"x_max":1015,"o":"m 187 117 q 110 186 187 117 q 33 483 33 255 q 187 849 33 711 q 570 987 341 987 q 834 920 728 987 q 998 748 941 853 l 743 621 q 563 713 684 713 q 412 650 471 713 q 353 483 353 587 q 412 316 353 379 q 570 252 471 252 q 709 290 662 252 l 709 332 l 540 332 l 540 574 l 1015 574 l 1015 176 q 570 -22 837 -22 q 187 117 341 -22 z "},"H":{"ha":985,"x_min":37,"x_max":947,"o":"m 376 622 l 608 622 l 608 972 l 947 972 l 947 0 l 608 0 l 608 344 l 376 344 l 376 0 l 37 0 l 37 972 l 376 972 l 376 622 z "},"I":{"ha":414,"x_min":37,"x_max":376,"o":"m 37 0 l 37 972 l 376 972 l 376 0 l 37 0 z "},"J":{"ha":762,"x_min":30,"x_max":724,"o":"m 142 316 q 269 269 203 269 q 356 301 328 269 q 385 386 385 334 l 385 972 l 724 972 l 724 386 q 594 88 724 197 q 283 -22 464 -22 q 30 57 136 -22 l 142 316 z "},"K":{"ha":1015,"x_min":37,"x_max":984,"o":"m 376 336 l 376 0 l 37 0 l 37 972 l 376 972 l 376 634 l 597 972 l 984 972 l 642 485 l 981 0 l 597 0 l 376 336 z "},"L":{"ha":865,"x_min":37,"x_max":829,"o":"m 376 274 l 829 274 l 829 0 l 37 0 l 37 972 l 376 972 l 376 274 z "},"M":{"ha":1235,"x_min":37,"x_max":1197,"o":"m 395 972 l 618 642 l 840 972 l 1197 972 l 1197 0 l 859 0 l 859 459 l 618 85 l 375 462 l 375 0 l 37 0 l 37 972 l 395 972 z "},"N":{"ha":996,"x_min":37,"x_max":958,"o":"m 311 972 l 648 530 l 648 972 l 958 972 l 958 0 l 684 0 l 347 442 l 347 0 l 37 0 l 37 972 l 311 972 z "},"O":{"ha":1109,"x_min":33,"x_max":1076,"o":"m 554 252 q 675 320 625 252 q 726 483 726 388 q 675 646 726 578 q 554 713 625 713 q 433 646 483 713 q 382 483 382 578 q 433 320 382 388 q 554 252 483 252 m 554 -22 q 185 126 338 -22 q 33 483 33 274 q 185 840 33 692 q 554 987 338 987 q 923 840 770 987 q 1076 483 1076 692 q 923 126 1076 274 q 554 -22 770 -22 z "},"P":{"ha":998,"x_min":37,"x_max":964,"o":"m 362 269 l 362 0 l 37 0 l 37 972 l 603 972 q 859 871 753 972 q 964 621 964 770 q 859 370 964 471 q 603 269 753 269 l 362 269 m 362 699 l 362 534 l 546 534 q 611 555 584 534 q 639 615 639 577 q 611 676 639 654 q 546 699 584 699 l 362 699 z "},"Q":{"ha":1134,"x_min":33,"x_max":1100,"o":"m 777 427 q 782 483 782 454 q 722 647 782 581 q 566 713 662 713 q 411 647 471 713 q 351 483 351 581 q 411 319 351 385 q 566 252 471 252 q 584 253 575 252 l 517 324 l 706 502 l 777 427 m 800 23 q 566 -22 695 -22 q 185 119 338 -22 q 33 483 33 260 q 185 846 33 705 q 566 987 338 987 q 947 846 795 987 q 1100 483 1100 705 q 1005 183 1100 308 l 1067 117 l 878 -61 l 800 23 z "},"R":{"ha":1011,"x_min":37,"x_max":978,"o":"m 362 699 l 362 527 l 559 527 q 625 551 597 527 q 652 612 652 574 q 625 675 652 651 q 559 699 597 699 l 362 699 m 454 276 l 362 276 l 362 0 l 37 0 l 37 972 l 589 972 q 872 870 766 972 q 978 618 978 768 q 783 317 978 414 l 978 0 l 608 0 l 454 276 z "},"S":{"ha":937,"x_min":30,"x_max":905,"o":"m 30 134 l 184 350 q 471 237 329 237 q 548 249 517 237 q 580 288 580 261 q 552 332 580 315 q 406 369 524 349 q 214 426 289 388 q 62 671 62 504 q 169 895 62 803 q 468 987 276 987 q 882 851 715 987 l 724 638 q 465 728 608 728 q 389 684 389 728 q 417 642 389 656 q 507 615 444 628 q 611 594 570 603 q 711 562 652 586 q 810 509 770 538 q 878 430 850 480 q 905 315 905 379 q 793 67 905 157 q 484 -22 682 -22 q 30 134 203 -22 z "},"T":{"ha":981,"x_min":34,"x_max":945,"o":"m 945 972 l 945 694 l 659 694 l 659 0 l 320 0 l 320 694 l 34 694 l 34 972 l 945 972 z "},"U":{"ha":984,"x_min":35,"x_max":946,"o":"m 607 406 l 607 972 l 946 972 l 946 406 q 816 98 946 218 q 491 -22 686 -22 q 166 98 296 -22 q 35 406 35 218 l 35 972 l 374 972 l 374 406 q 407 308 374 348 q 491 269 439 269 q 575 308 543 269 q 607 406 607 348 z "},"V":{"ha":1061,"x_min":30,"x_max":1030,"o":"m 30 972 l 368 972 l 554 378 l 742 972 l 1030 972 l 725 0 l 356 0 l 30 972 z "},"W":{"ha":1580,"x_min":30,"x_max":1550,"o":"m 30 972 l 368 972 l 507 446 l 661 972 l 956 972 l 1102 441 l 1250 972 l 1550 972 l 1257 0 l 918 0 l 787 499 l 650 0 l 322 0 l 30 972 z "},"X":{"ha":1071,"x_min":30,"x_max":1040,"o":"m 412 972 l 533 770 l 654 972 l 1040 972 l 726 485 l 1038 0 l 653 0 l 534 200 l 413 0 l 31 0 l 341 485 l 30 972 l 412 972 z "},"Y":{"ha":1073,"x_min":30,"x_max":1042,"o":"m 367 286 l 30 972 l 414 972 l 535 642 l 656 972 l 1042 972 l 706 288 l 706 0 l 367 0 l 367 286 z "},"Z":{"ha":981,"x_min":34,"x_max":945,"o":"m 945 972 l 945 762 l 509 278 l 945 278 l 945 0 l 34 0 l 34 210 l 470 694 l 34 694 l 34 972 l 945 972 z "},"[":{"ha":75,"x_min":0,"x_max":0,"o":""},"\\":{"ha":1702,"x_min":37,"x_max":1664,"o":"m 1158 395 l 1098 302 l 1409 -183 l 1025 -183 l 905 3 l 785 -183 l 403 -183 l 713 302 l 570 525 l 375 525 l 375 208 l 37 208 l 37 1181 l 1036 1181 l 1158 992 l 1278 1181 l 1664 1181 l 1412 789 l 1350 693 l 1662 208 l 1278 208 l 1158 395 m 905 601 l 965 694 l 829 907 l 375 907 l 375 789 l 784 789 l 905 601 z "},"]":{"ha":75,"x_min":0,"x_max":0,"o":""},"^":{"ha":75,"x_min":0,"x_max":0,"o":""},"_":{"ha":75,"x_min":0,"x_max":0,"o":""},"`":{"ha":75,"x_min":0,"x_max":0,"o":""},"a":{"ha":1114,"x_min":30,"x_max":1083,"o":"m 415 120 l 380 0 l 30 0 l 365 972 l 748 972 l 1083 0 l 737 0 l 701 120 l 415 120 m 627 371 l 555 612 l 486 371 l 627 371 z "},"b":{"ha":966,"x_min":37,"x_max":935,"o":"m 37 0 l 37 972 l 627 972 q 841 897 767 972 q 916 725 916 821 q 869 576 916 635 q 749 502 823 517 q 882 424 830 490 q 935 264 935 357 q 860 77 935 155 q 648 0 786 0 l 37 0 m 351 597 l 538 597 q 579 616 562 597 q 597 660 597 634 q 579 702 597 685 q 538 720 562 720 l 351 720 l 351 597 m 351 253 l 547 253 q 597 272 578 253 q 616 318 616 290 q 597 366 616 346 q 547 385 578 385 l 351 385 l 351 253 z "},"c":{"ha":1072,"x_min":33,"x_max":1042,"o":"m 746 357 l 1038 232 q 947 119 1002 170 q 566 -22 795 -22 q 185 119 338 -22 q 33 483 33 260 q 185 846 33 705 q 566 987 338 987 q 947 846 795 987 q 1042 727 1006 793 l 750 597 q 580 713 693 713 q 429 647 487 713 q 372 483 372 581 q 429 319 372 385 q 580 252 487 252 q 746 357 693 252 z "},"d":{"ha":1025,"x_min":37,"x_max":991,"o":"m 376 274 l 452 274 q 602 336 545 274 q 659 487 659 398 q 606 641 659 583 q 453 699 553 699 l 376 699 l 376 274 m 37 0 l 37 972 l 464 972 q 845 843 700 972 q 991 487 991 714 q 845 130 991 260 q 465 0 700 0 l 37 0 z "},"e":{"ha":865,"x_min":37,"x_max":829,"o":"m 376 618 l 748 618 l 748 354 l 376 354 l 376 274 l 829 274 l 829 0 l 37 0 l 37 972 l 829 972 l 829 699 l 376 699 l 376 618 z "},"f":{"ha":865,"x_min":37,"x_max":829,"o":"m 829 699 l 376 699 l 376 581 l 748 581 l 748 317 l 376 317 l 376 0 l 37 0 l 37 972 l 829 972 l 829 699 z "},"g":{"ha":1051,"x_min":33,"x_max":1015,"o":"m 187 117 q 110 186 187 117 q 33 483 33 255 q 187 849 33 711 q 570 987 341 987 q 834 920 728 987 q 998 748 941 853 l 743 621 q 563 713 684 713 q 412 650 471 713 q 353 483 353 587 q 412 316 353 379 q 570 252 471 252 q 709 290 662 252 l 709 332 l 540 332 l 540 574 l 1015 574 l 1015 176 q 570 -22 837 -22 q 187 117 341 -22 z "},"h":{"ha":985,"x_min":37,"x_max":947,"o":"m 376 622 l 608 622 l 608 972 l 947 972 l 947 0 l 608 0 l 608 344 l 376 344 l 376 0 l 37 0 l 37 972 l 376 972 l 376 622 z "},"i":{"ha":414,"x_min":37,"x_max":376,"o":"m 37 0 l 37 972 l 376 972 l 376 0 l 37 0 z "},"j":{"ha":762,"x_min":30,"x_max":724,"o":"m 142 316 q 269 269 203 269 q 356 301 328 269 q 385 386 385 334 l 385 972 l 724 972 l 724 386 q 594 88 724 197 q 283 -22 464 -22 q 30 57 136 -22 l 142 316 z "},"k":{"ha":1015,"x_min":37,"x_max":984,"o":"m 376 336 l 376 0 l 37 0 l 37 972 l 376 972 l 376 634 l 597 972 l 984 972 l 642 485 l 981 0 l 597 0 l 376 336 z "},"l":{"ha":865,"x_min":37,"x_max":829,"o":"m 376 274 l 829 274 l 829 0 l 37 0 l 37 972 l 376 972 l 376 274 z "},"m":{"ha":1235,"x_min":37,"x_max":1197,"o":"m 395 972 l 618 642 l 840 972 l 1197 972 l 1197 0 l 859 0 l 859 459 l 618 85 l 375 462 l 375 0 l 37 0 l 37 972 l 395 972 z "},"n":{"ha":996,"x_min":37,"x_max":958,"o":"m 311 972 l 648 530 l 648 972 l 958 972 l 958 0 l 684 0 l 347 442 l 347 0 l 37 0 l 37 972 l 311 972 z "},"o":{"ha":1109,"x_min":33,"x_max":1076,"o":"m 554 252 q 675 320 625 252 q 726 483 726 388 q 675 646 726 578 q 554 713 625 713 q 433 646 483 713 q 382 483 382 578 q 433 320 382 388 q 554 252 483 252 m 554 -22 q 185 126 338 -22 q 33 483 33 274 q 185 840 33 692 q 554 987 338 987 q 923 840 770 987 q 1076 483 1076 692 q 923 126 1076 274 q 554 -22 770 -22 z "},"p":{"ha":998,"x_min":37,"x_max":964,"o":"m 362 269 l 362 0 l 37 0 l 37 972 l 603 972 q 859 871 753 972 q 964 621 964 770 q 859 370 964 471 q 603 269 753 269 l 362 269 m 362 699 l 362 534 l 546 534 q 611 555 584 534 q 639 615 639 577 q 611 676 639 654 q 546 699 584 699 l 362 699 z "},"q":{"ha":1134,"x_min":33,"x_max":1100,"o":"m 777 427 q 782 483 782 454 q 722 647 782 581 q 566 713 662 713 q 411 647 471 713 q 351 483 351 581 q 411 319 351 385 q 566 252 471 252 q 584 253 575 252 l 517 324 l 706 502 l 777 427 m 800 23 q 566 -22 695 -22 q 185 119 338 -22 q 33 483 33 260 q 185 846 33 705 q 566 987 338 987 q 947 846 795 987 q 1100 483 1100 705 q 1005 183 1100 308 l 1067 117 l 878 -61 l 800 23 z "},"r":{"ha":1011,"x_min":37,"x_max":978,"o":"m 362 699 l 362 527 l 559 527 q 625 551 597 527 q 652 612 652 574 q 625 675 652 651 q 559 699 597 699 l 362 699 m 454 276 l 362 276 l 362 0 l 37 0 l 37 972 l 589 972 q 872 870 766 972 q 978 618 978 768 q 783 317 978 414 l 978 0 l 608 0 l 454 276 z "},"s":{"ha":937,"x_min":30,"x_max":905,"o":"m 30 134 l 184 350 q 471 237 329 237 q 548 249 517 237 q 580 288 580 261 q 552 332 580 315 q 406 369 524 349 q 214 426 289 388 q 62 671 62 504 q 169 895 62 803 q 468 987 276 987 q 882 851 715 987 l 724 638 q 465 728 608 728 q 389 684 389 728 q 417 642 389 656 q 507 615 444 628 q 611 594 570 603 q 711 562 652 586 q 810 509 770 538 q 878 430 850 480 q 905 315 905 379 q 793 67 905 157 q 484 -22 682 -22 q 30 134 203 -22 z "},"t":{"ha":981,"x_min":34,"x_max":945,"o":"m 945 972 l 945 694 l 659 694 l 659 0 l 320 0 l 320 694 l 34 694 l 34 972 l 945 972 z "},"u":{"ha":984,"x_min":35,"x_max":946,"o":"m 607 406 l 607 972 l 946 972 l 946 406 q 816 98 946 218 q 491 -22 686 -22 q 166 98 296 -22 q 35 406 35 218 l 35 972 l 374 972 l 374 406 q 407 308 374 348 q 491 269 439 269 q 575 308 543 269 q 607 406 607 348 z "},"v":{"ha":1061,"x_min":30,"x_max":1030,"o":"m 30 972 l 368 972 l 554 378 l 742 972 l 1030 972 l 725 0 l 356 0 l 30 972 z "},"w":{"ha":1580,"x_min":30,"x_max":1550,"o":"m 30 972 l 368 972 l 507 446 l 661 972 l 956 972 l 1102 441 l 1250 972 l 1550 972 l 1257 0 l 918 0 l 787 499 l 650 0 l 322 0 l 30 972 z "},"x":{"ha":1071,"x_min":30,"x_max":1040,"o":"m 412 972 l 533 770 l 654 972 l 1040 972 l 726 485 l 1038 0 l 653 0 l 534 200 l 413 0 l 31 0 l 341 485 l 30 972 l 412 972 z "},"y":{"ha":1073,"x_min":30,"x_max":1042,"o":"m 367 286 l 30 972 l 414 972 l 535 642 l 656 972 l 1042 972 l 706 288 l 706 0 l 367 0 l 367 286 z "},"z":{"ha":981,"x_min":34,"x_max":945,"o":"m 945 972 l 945 762 l 509 278 l 945 278 l 945 0 l 34 0 l 34 210 l 470 694 l 34 694 l 34 972 l 945 972 z "},"{":{"ha":75,"x_min":0,"x_max":0,"o":""},"|":{"ha":2477,"x_min":37,"x_max":2439,"o":"m 2439 0 l 2100 0 l 2100 446 l 1860 72 l 1472 674 l 1350 484 l 1662 0 l 1278 0 l 1158 186 l 1038 0 l 655 0 l 966 485 l 829 699 l 375 699 l 375 581 l 747 581 l 747 317 l 375 317 l 375 0 l 37 0 l 37 972 l 1036 972 l 1158 784 l 1278 972 l 1664 972 l 1860 669 l 2055 972 l 2439 972 l 2439 0 z "},"}":{"ha":75,"x_min":0,"x_max":0,"o":""},"~":{"ha":75,"x_min":0,"x_max":0,"o":""},"¡":{"ha":75,"x_min":0,"x_max":0,"o":""},"¢":{"ha":75,"x_min":0,"x_max":0,"o":""},"£":{"ha":75,"x_min":0,"x_max":0,"o":""},"¤":{"ha":75,"x_min":0,"x_max":0,"o":""},"¥":{"ha":75,"x_min":0,"x_max":0,"o":""},"¦":{"ha":75,"x_min":0,"x_max":0,"o":""},"§":{"ha":75,"x_min":0,"x_max":0,"o":""},"¨":{"ha":75,"x_min":0,"x_max":0,"o":""},"©":{"ha":75,"x_min":0,"x_max":0,"o":""},"ª":{"ha":75,"x_min":0,"x_max":0,"o":""},"«":{"ha":75,"x_min":0,"x_max":0,"o":""},"¬":{"ha":75,"x_min":0,"x_max":0,"o":""},"®":{"ha":75,"x_min":0,"x_max":0,"o":""},"¯":{"ha":75,"x_min":0,"x_max":0,"o":""},"°":{"ha":75,"x_min":0,"x_max":0,"o":""},"±":{"ha":75,"x_min":0,"x_max":0,"o":""},"²":{"ha":75,"x_min":0,"x_max":0,"o":""},"³":{"ha":75,"x_min":0,"x_max":0,"o":""},"´":{"ha":75,"x_min":0,"x_max":0,"o":""},"µ":{"ha":75,"x_min":0,"x_max":0,"o":""},"¶":{"ha":75,"x_min":0,"x_max":0,"o":""},"·":{"ha":75,"x_min":0,"x_max":0,"o":""},"∙":{"ha":75,"x_min":0,"x_max":0,"o":""},"¸":{"ha":75,"x_min":0,"x_max":0,"o":""},"¹":{"ha":75,"x_min":0,"x_max":0,"o":""},"º":{"ha":75,"x_min":0,"x_max":0,"o":""},"»":{"ha":75,"x_min":0,"x_max":0,"o":""},"¼":{"ha":75,"x_min":0,"x_max":0,"o":""},"½":{"ha":75,"x_min":0,"x_max":0,"o":""},"¾":{"ha":75,"x_min":0,"x_max":0,"o":""},"¿":{"ha":75,"x_min":0,"x_max":0,"o":""},"À":{"ha":85,"x_min":0,"x_max":0,"o":""},"Á":{"ha":85,"x_min":0,"x_max":0,"o":""},"Â":{"ha":85,"x_min":0,"x_max":0,"o":""},"Ã":{"ha":85,"x_min":0,"x_max":0,"o":""},"Ä":{"ha":85,"x_min":0,"x_max":0,"o":""},"Å":{"ha":85,"x_min":0,"x_max":0,"o":""},"Æ":{"ha":85,"x_min":0,"x_max":0,"o":""},"Ç":{"ha":85,"x_min":0,"x_max":0,"o":""},"È":{"ha":85,"x_min":0,"x_max":0,"o":""},"É":{"ha":85,"x_min":0,"x_max":0,"o":""},"Ê":{"ha":85,"x_min":0,"x_max":0,"o":""},"Ë":{"ha":85,"x_min":0,"x_max":0,"o":""},"Ì":{"ha":85,"x_min":0,"x_max":0,"o":""},"Í":{"ha":85,"x_min":0,"x_max":0,"o":""},"Î":{"ha":85,"x_min":0,"x_max":0,"o":""},"Ï":{"ha":85,"x_min":0,"x_max":0,"o":""},"Ð":{"ha":85,"x_min":0,"x_max":0,"o":""},"Ñ":{"ha":85,"x_min":0,"x_max":0,"o":""},"Ò":{"ha":85,"x_min":0,"x_max":0,"o":""},"Ó":{"ha":85,"x_min":0,"x_max":0,"o":""},"Ô":{"ha":85,"x_min":0,"x_max":0,"o":""},"Õ":{"ha":85,"x_min":0,"x_max":0,"o":""},"Ö":{"ha":85,"x_min":0,"x_max":0,"o":""},"×":{"ha":85,"x_min":0,"x_max":0,"o":""},"Ø":{"ha":85,"x_min":0,"x_max":0,"o":""},"Ù":{"ha":85,"x_min":0,"x_max":0,"o":""},"Ú":{"ha":85,"x_min":0,"x_max":0,"o":""},"Û":{"ha":85,"x_min":0,"x_max":0,"o":""},"Ü":{"ha":85,"x_min":0,"x_max":0,"o":""},"Ý":{"ha":85,"x_min":0,"x_max":0,"o":""},"Þ":{"ha":85,"x_min":0,"x_max":0,"o":""},"ß":{"ha":85,"x_min":0,"x_max":0,"o":""},"à":{"ha":85,"x_min":0,"x_max":0,"o":""},"á":{"ha":85,"x_min":0,"x_max":0,"o":""},"â":{"ha":85,"x_min":0,"x_max":0,"o":""},"ã":{"ha":85,"x_min":0,"x_max":0,"o":""},"ä":{"ha":85,"x_min":0,"x_max":0,"o":""},"å":{"ha":85,"x_min":0,"x_max":0,"o":""},"æ":{"ha":85,"x_min":0,"x_max":0,"o":""},"ç":{"ha":85,"x_min":0,"x_max":0,"o":""},"è":{"ha":85,"x_min":0,"x_max":0,"o":""},"é":{"ha":85,"x_min":0,"x_max":0,"o":""},"ê":{"ha":85,"x_min":0,"x_max":0,"o":""},"ë":{"ha":85,"x_min":0,"x_max":0,"o":""},"ì":{"ha":85,"x_min":0,"x_max":0,"o":""},"í":{"ha":85,"x_min":0,"x_max":0,"o":""},"î":{"ha":85,"x_min":0,"x_max":0,"o":""},"ï":{"ha":85,"x_min":0,"x_max":0,"o":""},"ð":{"ha":85,"x_min":0,"x_max":0,"o":""},"ñ":{"ha":85,"x_min":0,"x_max":0,"o":""},"ò":{"ha":85,"x_min":0,"x_max":0,"o":""},"ó":{"ha":85,"x_min":0,"x_max":0,"o":""},"ô":{"ha":85,"x_min":0,"x_max":0,"o":""},"õ":{"ha":85,"x_min":0,"x_max":0,"o":""},"ö":{"ha":85,"x_min":0,"x_max":0,"o":""},"÷":{"ha":85,"x_min":0,"x_max":0,"o":""},"ø":{"ha":85,"x_min":0,"x_max":0,"o":""},"ù":{"ha":85,"x_min":0,"x_max":0,"o":""},"ú":{"ha":85,"x_min":0,"x_max":0,"o":""},"û":{"ha":85,"x_min":0,"x_max":0,"o":""},"ü":{"ha":85,"x_min":0,"x_max":0,"o":""},"ý":{"ha":85,"x_min":0,"x_max":0,"o":""},"þ":{"ha":85,"x_min":0,"x_max":0,"o":""},"ÿ":{"ha":85,"x_min":0,"x_max":0,"o":""},"ı":{"ha":85,"x_min":0,"x_max":0,"o":""},"ˆ":{"ha":75,"x_min":0,"x_max":0,"o":""},"ˇ":{"ha":75,"x_min":0,"x_max":0,"o":""},"ˉ":{"ha":75,"x_min":0,"x_max":0,"o":""},"˘":{"ha":75,"x_min":0,"x_max":0,"o":""},"˙":{"ha":75,"x_min":0,"x_max":0,"o":""},"˚":{"ha":75,"x_min":0,"x_max":0,"o":""},"˛":{"ha":75,"x_min":0,"x_max":0,"o":""},"˜":{"ha":75,"x_min":0,"x_max":0,"o":""},"˝":{"ha":75,"x_min":0,"x_max":0,"o":""},"–":{"ha":75,"x_min":0,"x_max":0,"o":""},"—":{"ha":75,"x_min":0,"x_max":0,"o":""},"‘":{"ha":75,"x_min":0,"x_max":0,"o":""},"’":{"ha":75,"x_min":0,"x_max":0,"o":""},"‚":{"ha":75,"x_min":0,"x_max":0,"o":""},"“":{"ha":75,"x_min":0,"x_max":0,"o":""},"”":{"ha":75,"x_min":0,"x_max":0,"o":""},"„":{"ha":75,"x_min":0,"x_max":0,"o":""},"†":{"ha":75,"x_min":0,"x_max":0,"o":""},"‡":{"ha":75,"x_min":0,"x_max":0,"o":""},"•":{"ha":75,"x_min":0,"x_max":0,"o":""},"…":{"ha":75,"x_min":0,"x_max":0,"o":""},"‹":{"ha":75,"x_min":0,"x_max":0,"o":""},"›":{"ha":75,"x_min":0,"x_max":0,"o":""},"⁄":{"ha":75,"x_min":0,"x_max":0,"o":""},"∕":{"ha":75,"x_min":0,"x_max":0,"o":""},"₣":{"ha":75,"x_min":0,"x_max":0,"o":""},"₤":{"ha":75,"x_min":0,"x_max":0,"o":""},"₧":{"ha":75,"x_min":0,"x_max":0,"o":""},"€":{"ha":75,"x_min":0,"x_max":0,"o":""},"№":{"ha":75,"x_min":0,"x_max":0,"o":""},"™":{"ha":75,"x_min":0,"x_max":0,"o":""},"∂":{"ha":75,"x_min":0,"x_max":0,"o":""},"∆":{"ha":75,"x_min":0,"x_max":0,"o":""},"∏":{"ha":75,"x_min":0,"x_max":0,"o":""},"∑":{"ha":75,"x_min":0,"x_max":0,"o":""},"−":{"ha":75,"x_min":0,"x_max":0,"o":""},"√":{"ha":75,"x_min":0,"x_max":0,"o":""},"∞":{"ha":75,"x_min":0,"x_max":0,"o":""},"∫":{"ha":75,"x_min":0,"x_max":0,"o":""},"≈":{"ha":75,"x_min":0,"x_max":0,"o":""},"≤":{"ha":75,"x_min":0,"x_max":0,"o":""},"≥":{"ha":75,"x_min":0,"x_max":0,"o":""},"":{"ha":75,"x_min":0,"x_max":0,"o":""},"ﬁ":{"ha":75,"x_min":0,"x_max":0,"o":""},"":{"ha":75,"x_min":0,"x_max":0,"o":""},"ﬂ":{"ha":75,"x_min":0,"x_max":0,"o":""}}}
